<?xml version="1.0" encoding="UTF-8"?>
<svg width="95px" height="33px" viewBox="0 0 95 33" version="1.1" xmlns="http://www.w3.org/2000/svg" xmlns:xlink="http://www.w3.org/1999/xlink">
    <!-- Generator: Sketch 44.1 (41455) - http://www.bohemiancoding.com/sketch -->
    <title>MakaTalk</title>
    <desc>Created with Sketch.</desc>
    <defs></defs>
    <g id="App" stroke="none" stroke-width="1" fill="none" fill-rule="evenodd">
        <g id="dashboard" transform="translate(-465.000000, -20.000000)" fill="#FFFFFF">
            <path d="M466.074219,41.9375 L465.9375,26.4492188 C465.9375,24.7174393 465.957031,22.9921961 465.996094,21.2734375 L467.109375,20.6484375 C467.90365,20.7005211 468.808589,22.8228957 469.824219,27.015625 C470.644535,30.4401213 471.308591,33.5162624 471.816406,36.2441406 C472.324221,38.9720188 472.604166,40.4531238 472.65625,40.6875 C472.838543,39.8281207 473.177081,38.2916777 473.671875,36.078125 C474.166669,33.8645723 474.537759,32.1458395 474.785156,30.921875 C475.514327,27.3411279 475.963541,24.157566 476.132812,21.3710938 L476.132812,21.1367188 C476.184896,20.7981754 476.347655,20.5247406 476.621094,20.3164062 C476.894533,20.1080719 477.180988,20.0039062 477.480469,20.0039062 C477.779949,20.0039062 478.024088,20.1113271 478.212891,20.3261719 C478.401694,20.5410167 478.496094,20.7721342 478.496094,21.0195312 C478.496094,24.2096514 478.616535,28.9882494 478.857422,35.3554688 C479.098308,41.7226881 479.21875,46.5012861 479.21875,49.6914062 C479.21875,50.3294303 479.049481,50.8828102 478.710938,51.3515625 C478.372394,51.8203148 478.046877,52.0546875 477.734375,52.0546875 C477.08333,52.0546875 476.757812,51.527349 476.757812,50.4726562 L476.601562,33.6367188 L476.601562,31.6054688 C476.41927,32.6341197 476.009118,34.4342319 475.371094,37.0058594 C474.73307,39.5774868 474.322918,41.5468682 474.140625,42.9140625 L474.140625,43.1679688 C474.114583,43.2721359 474.075521,43.5195293 474.023438,43.9101562 C473.971354,44.3007832 473.916016,44.6230456 473.857422,44.8769531 C473.798828,45.1308606 473.710938,45.4140609 473.59375,45.7265625 C473.346353,46.3515656 472.936201,46.6640625 472.363281,46.6640625 C471.412756,46.6640625 470.9375,45.4205854 470.9375,42.9335938 C470.9375,40.4726439 470.338548,37.028668 469.140625,32.6015625 C468.541664,30.3880098 468.157553,28.8906289 467.988281,28.109375 C467.936198,30.2448023 467.910156,31.8528592 467.910156,32.9335938 L468.242188,49.3789062 C468.242188,49.9518258 468.040367,50.4531229 467.636719,50.8828125 C466.946611,50.8828125 466.481121,50.6614605 466.240234,50.21875 C465.999348,49.7760395 465.878906,49.1770871 465.878906,48.421875 L466.074219,41.9375 Z M488.574219,43.6757812 C488.496093,43.2851543 488.457031,42.6048226 488.457031,41.6347656 C488.457031,40.6647087 488.401693,39.4602937 488.291016,38.0214844 C488.180338,36.5826751 488.020834,34.9095147 487.8125,33.0019531 C487.604166,31.0943915 487.460938,29.7109418 487.382812,28.8515625 C486.171869,35.5573252 485.390627,40.2838404 485.039062,43.03125 C485.494794,43.3307307 486.673168,43.5455723 488.574219,43.6757812 Z M490.664062,42.875 L491.09375,45.3359375 C491.09375,45.66146 491.220702,46.4557229 491.474609,47.71875 C491.728517,48.9817771 491.855469,49.8085918 491.855469,50.1992188 L491.855469,50.2382812 C491.855469,50.8242217 491.634117,51.2018221 491.191406,51.3710938 C490.631508,51.3710938 490.195314,51.2799488 489.882812,51.0976562 C489.570311,50.9153637 489.414062,50.5638047 489.414062,50.0429688 C489.414062,48.9101506 489.218752,47.2630316 488.828125,45.1015625 L484.882812,44.515625 C484.635415,45.4010461 484.446615,46.3710885 484.316406,47.4257812 C484.186197,48.480474 484.062501,49.2486955 483.945312,49.7304688 C483.710936,50.720057 483.274743,51.2148438 482.636719,51.2148438 C482.324217,51.2148438 482.034507,51.1139333 481.767578,50.9121094 C481.50065,50.7102854 481.367188,50.4531266 481.367188,50.140625 L481.464844,49.7890625 C483.261728,42.8489236 484.59635,36.0911787 485.46875,29.515625 C485.494792,29.3333324 485.533854,28.7994836 485.585938,27.9140625 C485.716146,25.9609277 485.96354,24.7174506 486.328125,24.1835938 L487.675781,24.1835938 C488.040366,24.1835938 488.359374,24.2682283 488.632812,24.4375 C488.906251,24.6067717 489.042969,24.8606754 489.042969,25.1992188 C489.042969,27.2304789 489.313148,30.2447717 489.853516,34.2421875 C490.393883,38.2396033 490.664062,41.1171787 490.664062,42.875 Z M499.550781,33.0507812 L499.472656,35.4335938 C499.472656,36.5794328 499.931636,38.7213385 500.849609,41.859375 C501.767583,44.9974115 502.532549,47.0742137 503.144531,48.0898438 C503.222657,48.2070318 503.395181,48.4479148 503.662109,48.8125 C503.929038,49.1770852 504.124348,49.4960924 504.248047,49.7695312 C504.371745,50.0429701 504.433594,50.3294256 504.433594,50.6289062 C504.433594,50.9283869 504.319663,51.1790354 504.091797,51.3808594 C503.863931,51.5826833 503.600262,51.6835938 503.300781,51.6835938 C502.675778,51.6835938 502.024743,51.0227931 501.347656,49.7011719 C500.67057,48.3795507 500.071617,46.7617283 499.550781,44.8476562 C498.652339,41.5794107 497.988283,38.7343871 497.558594,36.3125 C496.595047,38.2265721 496.113281,40.5442572 496.113281,43.265625 L496.113281,50.6679688 C496.113281,51.2929719 495.839846,51.6054688 495.292969,51.6054688 C494.889321,51.6054688 494.567058,51.4915376 494.326172,51.2636719 C494.085285,51.0358062 493.964844,50.7265645 493.964844,50.3359375 L493.964844,38.1875 C493.964844,36.7421803 494.091796,34.5839987 494.345703,31.7128906 C494.599611,28.8417825 494.726562,26.6901113 494.726562,25.2578125 C494.960939,24.7499975 495.302732,24.4960938 495.751953,24.4960938 C496.201174,24.4960938 496.546223,24.6165353 496.787109,24.8574219 C497.027996,25.0983085 497.148438,25.3880191 497.148438,25.7265625 L497.148438,25.84375 C496.796873,26.4557322 496.621094,28.8840934 496.621094,33.1289062 L496.621094,34.5546875 C496.660156,34.489583 497.148433,33.5130303 498.085938,31.625 C500.364595,27.0416437 501.770831,24.75 502.304688,24.75 C502.695314,24.75 503.050129,24.8411449 503.369141,25.0234375 C503.688153,25.2057301 503.847656,25.4726545 503.847656,25.8242188 C503.847656,25.8502605 503.528649,26.3841094 502.890625,27.4257812 C500.924469,30.6419432 499.811199,32.5169244 499.550781,33.0507812 Z M513.144531,43.6757812 C513.066406,43.2851543 513.027344,42.6048226 513.027344,41.6347656 C513.027344,40.6647087 512.972006,39.4602937 512.861328,38.0214844 C512.75065,36.5826751 512.591147,34.9095147 512.382812,33.0019531 C512.174478,31.0943915 512.03125,29.7109418 511.953125,28.8515625 C510.742181,35.5573252 509.960939,40.2838404 509.609375,43.03125 C510.065106,43.3307307 511.24348,43.5455723 513.144531,43.6757812 Z M515.234375,42.875 L515.664062,45.3359375 C515.664062,45.66146 515.791014,46.4557229 516.044922,47.71875 C516.298829,48.9817771 516.425781,49.8085918 516.425781,50.1992188 L516.425781,50.2382812 C516.425781,50.8242217 516.204429,51.2018221 515.761719,51.3710938 C515.20182,51.3710938 514.765627,51.2799488 514.453125,51.0976562 C514.140623,50.9153637 513.984375,50.5638047 513.984375,50.0429688 C513.984375,48.9101506 513.789064,47.2630316 513.398438,45.1015625 L509.453125,44.515625 C509.205728,45.4010461 509.016928,46.3710885 508.886719,47.4257812 C508.75651,48.480474 508.632813,49.2486955 508.515625,49.7304688 C508.281249,50.720057 507.845055,51.2148438 507.207031,51.2148438 C506.89453,51.2148438 506.604819,51.1139333 506.337891,50.9121094 C506.070962,50.7102854 505.9375,50.4531266 505.9375,50.140625 L506.035156,49.7890625 C507.83204,42.8489236 509.166662,36.0911787 510.039062,29.515625 C510.065104,29.3333324 510.104166,28.7994836 510.15625,27.9140625 C510.286459,25.9609277 510.533852,24.7174506 510.898438,24.1835938 L512.246094,24.1835938 C512.610679,24.1835938 512.929686,24.2682283 513.203125,24.4375 C513.476564,24.6067717 513.613281,24.8606754 513.613281,25.1992188 C513.613281,27.2304789 513.883461,30.2447717 514.423828,34.2421875 C514.964195,38.2396033 515.234375,41.1171787 515.234375,42.875 Z M523.515625,27.7773438 L523.4375,32.9335938 L523.789062,42.1328125 L524.121094,49.3203125 C524.121094,50.6224023 523.736983,51.2734375 522.96875,51.2734375 C522.526039,51.2734375 522.200522,51.0651062 521.992188,50.6484375 C521.783853,50.2317688 521.679688,49.7695338 521.679688,49.2617188 L521.992188,42.875 C521.992188,41.4947848 521.901043,39.4179826 521.71875,36.6445312 C521.536457,33.8710799 521.445312,31.7942777 521.445312,30.4140625 L521.503906,26.9179688 C521.503906,25.0038967 521.38021,23.7604195 521.132812,23.1875 L518.964844,23.4023438 C518.6263,23.4023438 518.323569,23.3014333 518.056641,23.0996094 C517.789712,22.8977854 517.65625,22.6373714 517.65625,22.3183594 C517.65625,21.9993474 517.975257,21.7291678 518.613281,21.5078125 C519.264326,21.2734363 520.045568,21.1041672 520.957031,21 C522.558602,20.8177074 523.906245,20.7265625 525,20.7265625 C525.325522,20.7265625 525.621743,20.8339833 525.888672,21.0488281 C526.1556,21.2636729 526.289062,21.5338525 526.289062,21.859375 C526.289062,22.1848975 526.171876,22.4420563 525.9375,22.6308594 C525.703124,22.8196624 525.416668,22.9140625 525.078125,22.9140625 L523.652344,22.8359375 C523.470051,22.8359375 523.333334,22.8424479 523.242188,22.8554688 C523.42448,24.3919348 523.515625,26.0325434 523.515625,27.7773438 Z M534.882812,43.6757812 C534.804687,43.2851543 534.765625,42.6048226 534.765625,41.6347656 C534.765625,40.6647087 534.710287,39.4602937 534.599609,38.0214844 C534.488932,36.5826751 534.329428,34.9095147 534.121094,33.0019531 C533.912759,31.0943915 533.769532,29.7109418 533.691406,28.8515625 C532.480463,35.5573252 531.699221,40.2838404 531.347656,43.03125 C531.803388,43.3307307 532.981761,43.5455723 534.882812,43.6757812 Z M536.972656,42.875 L537.402344,45.3359375 C537.402344,45.66146 537.529296,46.4557229 537.783203,47.71875 C538.037111,48.9817771 538.164062,49.8085918 538.164062,50.1992188 L538.164062,50.2382812 C538.164062,50.8242217 537.942711,51.2018221 537.5,51.3710938 C536.940101,51.3710938 536.503908,51.2799488 536.191406,51.0976562 C535.878905,50.9153637 535.722656,50.5638047 535.722656,50.0429688 C535.722656,48.9101506 535.527346,47.2630316 535.136719,45.1015625 L531.191406,44.515625 C530.944009,45.4010461 530.755209,46.3710885 530.625,47.4257812 C530.494791,48.480474 530.371094,49.2486955 530.253906,49.7304688 C530.01953,50.720057 529.583337,51.2148438 528.945312,51.2148438 C528.632811,51.2148438 528.3431,51.1139333 528.076172,50.9121094 C527.809243,50.7102854 527.675781,50.4531266 527.675781,50.140625 L527.773438,49.7890625 C529.570321,42.8489236 530.904944,36.0911787 531.777344,29.515625 C531.803386,29.3333324 531.842448,28.7994836 531.894531,27.9140625 C532.02474,25.9609277 532.272134,24.7174506 532.636719,24.1835938 L533.984375,24.1835938 C534.34896,24.1835938 534.667967,24.2682283 534.941406,24.4375 C535.214845,24.6067717 535.351562,24.8606754 535.351562,25.1992188 C535.351562,27.2304789 535.621742,30.2447717 536.162109,34.2421875 C536.702477,38.2396033 536.972656,41.1171787 536.972656,42.875 Z M542.695312,28.578125 L542.8125,38.1875 C542.656249,38.5520852 542.578125,39.0078098 542.578125,39.5546875 L542.578125,40.3554688 L542.421875,46.7226562 C542.421875,48.5586029 542.871089,49.4765625 543.769531,49.4765625 L545.429688,49.4179688 C546.861986,49.4179688 547.578125,49.8085898 547.578125,50.5898438 C547.578125,50.8763035 547.454428,51.1139313 547.207031,51.3027344 C546.959634,51.4915374 546.679689,51.6054686 546.367188,51.6445312 C545.39062,51.3320297 544.199226,51.1757812 542.792969,51.1757812 C542.363279,51.4231783 541.949872,51.546875 541.552734,51.546875 C541.155597,51.546875 540.846355,51.4101576 540.625,51.1367188 C540.403645,50.8632799 540.292969,50.5638037 540.292969,50.2382812 C540.292969,48.2591047 540.377603,45.2806188 540.546875,41.3027344 C540.716147,37.3248499 540.800781,34.3463641 540.800781,32.3671875 L540.800781,32.0742188 C540.64453,30.4075438 540.566406,29.1575562 540.566406,28.3242188 C540.566406,25.7981645 541.028641,24.5351562 541.953125,24.5351562 C542.226564,24.5351562 542.464192,24.6328115 542.666016,24.828125 C542.86784,25.0234385 542.96875,25.2578111 542.96875,25.53125 L542.695312,28.578125 Z M554.980469,33.0507812 L554.902344,35.4335938 C554.902344,36.5794328 555.361324,38.7213385 556.279297,41.859375 C557.19727,44.9974115 557.962237,47.0742137 558.574219,48.0898438 C558.652344,48.2070318 558.824868,48.4479148 559.091797,48.8125 C559.358725,49.1770852 559.554036,49.4960924 559.677734,49.7695312 C559.801433,50.0429701 559.863281,50.3294256 559.863281,50.6289062 C559.863281,50.9283869 559.74935,51.1790354 559.521484,51.3808594 C559.293619,51.5826833 559.029949,51.6835938 558.730469,51.6835938 C558.105466,51.6835938 557.45443,51.0227931 556.777344,49.7011719 C556.100257,48.3795507 555.501305,46.7617283 554.980469,44.8476562 C554.082027,41.5794107 553.417971,38.7343871 552.988281,36.3125 C552.024735,38.2265721 551.542969,40.5442572 551.542969,43.265625 L551.542969,50.6679688 C551.542969,51.2929719 551.269534,51.6054688 550.722656,51.6054688 C550.319008,51.6054688 549.996746,51.4915376 549.755859,51.2636719 C549.514973,51.0358062 549.394531,50.7265645 549.394531,50.3359375 L549.394531,38.1875 C549.394531,36.7421803 549.521483,34.5839987 549.775391,31.7128906 C550.029298,28.8417825 550.15625,26.6901113 550.15625,25.2578125 C550.390626,24.7499975 550.73242,24.4960938 551.181641,24.4960938 C551.630862,24.4960938 551.97591,24.6165353 552.216797,24.8574219 C552.457683,25.0983085 552.578125,25.3880191 552.578125,25.7265625 L552.578125,25.84375 C552.226561,26.4557322 552.050781,28.8840934 552.050781,33.1289062 L552.050781,34.5546875 C552.089844,34.489583 552.57812,33.5130303 553.515625,31.625 C555.794282,27.0416437 557.200518,24.75 557.734375,24.75 C558.125002,24.75 558.479816,24.8411449 558.798828,25.0234375 C559.11784,25.2057301 559.277344,25.4726545 559.277344,25.8242188 C559.277344,25.8502605 558.958337,26.3841094 558.320312,27.4257812 C556.354157,30.6419432 555.240887,32.5169244 554.980469,33.0507812 Z" id="MakaTalk"></path>
        </g>
    </g>
</svg>