<?xml version="1.0" encoding="UTF-8"?>
<svg width="86px" height="40px" viewBox="0 0 86 40" version="1.1" xmlns="http://www.w3.org/2000/svg" xmlns:xlink="http://www.w3.org/1999/xlink">
    <!-- Generator: Sketch 44.1 (41455) - http://www.bohemiancoding.com/sketch -->
    <title>Group 4</title>
    <desc>Created with Sketch.</desc>
    <defs></defs>
    <g id="App" stroke="none" stroke-width="1" fill="none" fill-rule="evenodd">
        <g id="young_person_view_dark" transform="translate(-16.000000, -16.000000)">
            <g id="Group-2" transform="translate(0.000000, 11.000000)" ></g>
            <g id="Group-4" transform="translate(6.000000, 6.000000)" >
                <path d="M69.8723199,32.1515626 C69.8723199,32.6984403 69.7785708,33.1697898 69.5910699,33.5656251 C69.4035689,33.9614604 69.1314362,34.28828 68.7746636,34.5460938 C68.417891,34.8039076 67.9816974,34.9940099 67.4660699,35.1164063 C66.9504423,35.2388028 66.3645106,35.3000001 65.7082574,35.3000001 L61.9191949,35.3000001 L61.9191949,24.4875001 L65.4191949,24.4875001 C66.117115,24.4875001 66.7082549,24.5369787 67.1926324,24.6359376 C67.6770098,24.7348964 68.070235,24.8872386 68.3723199,25.0929688 C68.6744047,25.298699 68.8931525,25.557811 69.0285699,25.8703126 C69.1639872,26.1828141 69.2316949,26.5526021 69.2316949,26.9796876 C69.2316949,27.3651062 69.1835183,27.6984362 69.0871636,27.9796876 C68.990809,28.260939 68.8592999,28.4992178 68.6926324,28.6945313 C68.5259649,28.8898448 68.3306543,29.0473953 68.1066949,29.1671876 C67.8827354,29.2869798 67.6431545,29.3781248 67.3879449,29.4406251 C67.7577384,29.4875003 68.0949746,29.5734369 68.3996636,29.6984376 C68.7043526,29.8234382 68.9660688,29.9940094 69.1848199,30.2101563 C69.4035709,30.4263032 69.5728401,30.6932276 69.6926324,31.0109376 C69.8124246,31.3286475 69.8723199,31.708852 69.8723199,32.1515626 Z M67.3723199,27.3781251 C67.3723199,27.1333322 67.3358619,26.9289071 67.2629449,26.7648438 C67.1900278,26.6007805 67.0715394,26.4679693 66.9074761,26.3664063 C66.7434128,26.2648433 66.5285712,26.1919274 66.2629449,26.1476563 C65.9973185,26.1033853 65.6691968,26.0812501 65.2785699,26.0812501 L63.7395074,26.0812501 L63.7395074,28.8546876 L65.2160699,28.8546876 C65.6223219,28.8546876 65.9621622,28.8234379 66.2356011,28.7609376 C66.50904,28.6984373 66.7303919,28.6059903 66.8996636,28.4835938 C67.0689353,28.3611974 67.1900278,28.2075531 67.2629449,28.0226563 C67.3358619,27.8377596 67.3723199,27.622918 67.3723199,27.3781251 Z M67.9816949,32.0187501 C67.9816949,31.7010401 67.9322162,31.4406261 67.8332574,31.2375001 C67.7342985,31.0343741 67.5793522,30.8742194 67.3684136,30.7570313 C67.157475,30.6398432 66.8892486,30.5591149 66.5637261,30.5148438 C66.2382036,30.4705728 65.8514888,30.4484376 65.4035699,30.4484376 L63.7395074,30.4484376 L63.7395074,33.6671876 L65.0363824,33.6671876 C65.5103431,33.6671876 65.9296097,33.6515627 66.2941949,33.6203126 C66.65878,33.5890624 66.9660686,33.5161465 67.2160699,33.4015626 C67.4660711,33.2869787 67.6561734,33.1216157 67.7863824,32.9054688 C67.9165913,32.6893219 67.9816949,32.3937519 67.9816949,32.0187501 Z M76.6223199,35.3000001 L76.6223199,34.3703126 C76.2369013,34.7140643 75.8293533,34.9953115 75.3996636,35.2140626 C74.969974,35.4328137 74.5025307,35.5421876 73.9973199,35.5421876 C73.5806511,35.5421876 73.2108631,35.4796882 72.8879449,35.3546876 C72.5650266,35.2296869 72.2941959,35.0539075 72.0754449,34.8273438 C71.8566938,34.6007802 71.6900288,34.3325537 71.5754449,34.0226563 C71.4608609,33.7127589 71.4035699,33.3703144 71.4035699,32.9953126 C71.4035699,32.5005184 71.4856003,32.0864601 71.6496636,31.7531251 C71.8137269,31.4197901 72.0402872,31.1476574 72.3293511,30.9367188 C72.618415,30.7257803 72.9621616,30.5669277 73.3606011,30.4601563 C73.7590406,30.353385 74.1952341,30.2765628 74.6691949,30.2296876 L76.5441949,30.0500001 L76.5441949,29.6671876 C76.5441949,29.3963529 76.5038307,29.1710947 76.4231011,28.9914063 C76.3423715,28.8117179 76.2251852,28.6671881 76.0715386,28.5578126 C75.917892,28.448437 75.7277897,28.3716149 75.5012261,28.3273438 C75.2746625,28.2830728 75.0181546,28.2609376 74.7316949,28.2609376 C74.4556518,28.2609376 74.2147688,28.286979 74.0090386,28.3390626 C73.8033084,28.3911462 73.6249248,28.4588538 73.4738824,28.5421876 C73.3228399,28.6255213 73.1978412,28.7205725 73.0988824,28.8273438 C72.9999235,28.9341152 72.9217993,29.0395829 72.8645074,29.1437501 L71.5363824,28.2921876 C71.6353412,28.1151034 71.7720586,27.941928 71.9465386,27.7726563 C72.1210186,27.6033846 72.3384644,27.4523445 72.5988824,27.3195313 C72.8593003,27.1867182 73.167891,27.0786463 73.5246636,26.9953126 C73.8814362,26.9119788 74.2941925,26.8703126 74.7629449,26.8703126 C75.3358644,26.8703126 75.8384635,26.9171871 76.2707574,27.0109376 C76.7030512,27.104688 77.0637247,27.2609365 77.3527886,27.4796876 C77.6418525,27.6984387 77.8592983,27.9914045 78.0051324,28.3585938 C78.1509664,28.7257832 78.2238824,29.1828098 78.2238824,29.7296876 L78.2238824,35.3000001 L76.6223199,35.3000001 Z M76.5441949,31.3156251 L75.3723199,31.4250001 C75.0129431,31.4562502 74.6939358,31.5057289 74.4152886,31.5734376 C74.1366414,31.6411462 73.9022687,31.7348953 73.7121636,31.8546876 C73.5220585,31.9744798 73.3775287,32.1242179 73.2785699,32.3039063 C73.179611,32.4835947 73.1301324,32.7036446 73.1301324,32.9640626 C73.1301324,33.3963564 73.2447145,33.7023429 73.4738824,33.8820313 C73.7030502,34.0617197 74.0259636,34.1515626 74.4426324,34.1515626 C74.6040915,34.1515626 74.7720586,34.122917 74.9465386,34.0656251 C75.1210186,34.0083331 75.2981002,33.932813 75.4777886,33.8390626 C75.657477,33.7453121 75.8371627,33.6346361 76.0168511,33.5070313 C76.1965395,33.3794265 76.372319,33.2453133 76.5441949,33.1046876 L76.5441949,31.3156251 Z M87.0832574,34.0812501 C86.9374233,34.3052095 86.7707583,34.5070304 86.5832574,34.6867188 C86.3957564,34.8664072 86.1783107,35.0200515 85.9309136,35.1476563 C85.6835165,35.2752611 85.4022693,35.3729164 85.0871636,35.4406251 C84.7720579,35.5083337 84.4191968,35.5421876 84.0285699,35.5421876 C83.3410664,35.5421876 82.7551348,35.4380219 82.2707574,35.2296876 C81.7863799,35.0213532 81.3905506,34.7270853 81.0832574,34.3468751 C80.7759641,33.9666648 80.5520081,33.5135444 80.4113824,32.9875001 C80.2707566,32.4614558 80.2004449,31.8781283 80.2004449,31.2375001 C80.2004449,30.5708301 80.2746629,29.9679715 80.4231011,29.4289063 C80.5715393,28.8898411 80.7994016,28.4315124 81.1066949,28.0539063 C81.4139881,27.6763003 81.8046091,27.3846365 82.2785699,27.1789063 C82.7525306,26.9731761 83.3150249,26.8703126 83.9660699,26.8703126 C84.6587816,26.8703126 85.2603381,26.990103 85.7707574,27.2296876 C86.2811766,27.4692721 86.6822142,27.8338518 86.9738824,28.3234376 L85.6613824,29.2062501 C85.4790898,28.9249987 85.2551337,28.7101571 84.9895074,28.5617188 C84.723881,28.4132806 84.3879469,28.3390626 83.9816949,28.3390626 C83.2785663,28.3390626 82.7616444,28.5721332 82.4309136,29.0382813 C82.1001828,29.5044295 81.9348199,30.2374951 81.9348199,31.2375001 C81.9348199,31.6958357 81.9712778,32.1020816 82.0441949,32.4562501 C82.1171119,32.8104185 82.2356003,33.1072905 82.3996636,33.3468751 C82.5637269,33.5864596 82.7811727,33.7687494 83.0520074,33.8937501 C83.322842,34.0187507 83.6535679,34.0812501 84.0441949,34.0812501 C84.2264874,34.0812501 84.3970586,34.0669273 84.5559136,34.0382813 C84.7147686,34.0096353 84.8645066,33.9614587 85.0051324,33.8937501 C85.1457581,33.8260414 85.2785692,33.7375006 85.4035699,33.6281251 C85.5285705,33.5187495 85.6509651,33.3833342 85.7707574,33.2218751 L87.0832574,34.0812501 Z M93.6848199,35.3000001 L91.2863824,31.7609376 L90.4582574,32.6750001 L90.4582574,35.3000001 L88.7785699,35.3000001 L88.7785699,23.6671876 L90.4582574,23.6671876 L90.4582574,30.6281251 L93.4973199,27.1046876 L95.4816949,27.1046876 L92.3098199,30.6281251 L95.6535699,35.3000001 L93.6848199,35.3000001 Z" id="Back" fill="#FFFFFF"></path>
                <g id="ic_arrow_back" transform="translate(0.200000, 0.000000)">
                    <g id="Icon-24px">
                        <polygon id="Shape" points="0 0 60 0 60 60 0 60" ></polygon>
                        <polygon id="Shape" fill="#FFFFFF" points="50 27.5 19.575 27.5 33.55 13.525 30 10 10 30 30 50 33.525 46.475 19.575 32.5 50 32.5"></polygon>
                    </g>
                </g>
            </g>
        </g>
    </g>
</svg>
